<svg xmlns="http://www.w3.org/2000/svg" xmlns:xlink="http://www.w3.org/1999/xlink" zoomAndPan="magnify" preserveAspectRatio="xMidYMid meet" version="1.0" viewBox="29.31 157.02 315.92 59.15"><defs><g/></defs><path stroke-linecap="butt" transform="matrix(0.738387, -0.131473, 0.131473, 0.738387, 32.574729, 170.101645)" fill="none" stroke-linejoin="miter" d="M 2.802546 54.999059 C 2.426611 55.000895 2.101879 54.863721 1.817181 54.590839 C 1.534309 54.307701 1.391499 53.980729 1.39479 53.605707 L 1.396839 11.612061 C 1.395353 11.204447 1.535266 10.864332 1.81988 10.602884 C 2.100278 10.335396 2.430553 10.203753 2.800447 10.206132 L 26.3683 10.207334 C 28.57502 10.203483 30.53387 10.700392 32.245762 11.692936 C 33.969736 12.67705 35.320524 14.033807 36.305081 15.753866 C 37.300806 17.470622 37.793815 19.425863 37.797667 21.632584 L 37.795649 43.570895 C 37.794372 45.776702 37.301677 47.741592 36.307308 49.46374 C 35.319892 51.176545 33.968263 52.528247 32.246378 53.523059 C 30.531448 54.508528 28.571079 55.000625 26.370399 55.000261 Z M 19.600773 42.124603 C 20.013515 42.12403 20.345615 41.982133 20.602201 41.699824 C 20.863915 41.418428 20.995961 41.092783 20.997427 40.728016 L 20.994608 24.491735 C 20.994036 24.078993 20.863307 23.743591 20.598206 23.479489 C 20.344275 23.212085 20.012589 23.084253 19.60076 23.079698 C 19.229953 23.082447 18.899679 23.21409 18.620194 23.476451 C 18.334667 23.743026 18.195667 24.078014 18.19624 24.490755 L 18.193018 40.731251 C 18.192465 41.09089 18.335276 41.417862 18.618147 41.701 C 18.901019 41.984138 19.230879 42.122225 19.600773 42.124603 Z M 19.600773 42.124603 " stroke="#231f20" stroke-width="11.269819" stroke-opacity="1" stroke-miterlimit="4"/><path stroke-linecap="butt" transform="matrix(0.742841, -0.103379, 0.103379, 0.742841, 62.45858, 164.798953)" fill="none" stroke-linejoin="miter" d="M 12.820745 54.99773 C 10.616927 55.001284 8.650694 54.506791 6.930928 53.526004 C 5.218473 52.530458 3.866374 51.174897 2.868754 49.463762 C 1.888763 47.739304 1.394053 45.777386 1.395657 43.574286 L 1.393621 21.635425 C 1.395944 19.427167 1.883843 17.470533 2.869071 15.756643 C 3.866052 14.033871 5.216454 12.681054 6.931313 11.694469 C 8.652048 10.703443 10.614683 10.203574 12.822942 10.205896 L 26.369272 10.203289 C 28.572372 10.204894 30.532729 10.703827 32.245901 11.694214 C 33.970109 12.680878 35.322926 14.031281 36.308075 15.756456 C 37.300536 17.466874 37.795247 19.428792 37.793643 21.631892 L 37.795678 43.570753 C 37.793356 45.779011 37.299581 47.740086 36.307758 49.463575 C 35.32253 51.177466 33.966969 52.529565 32.245516 53.525749 C 30.531375 54.507176 28.574616 55.002604 26.366358 55.000282 Z M 19.602942 42.122178 C 20.013211 42.12143 20.342697 41.983236 20.597993 41.697994 C 20.862888 41.419347 20.997248 41.096241 20.995916 40.727959 L 20.994617 24.489444 C 20.993869 24.079175 20.862269 23.740091 20.599097 23.477349 C 20.346244 23.216043 20.012821 23.080247 19.602551 23.080995 C 19.22911 23.081609 18.900343 23.214646 18.616249 23.480104 C 18.338032 23.741121 18.196359 24.078985 18.191948 24.488536 L 18.193247 40.727051 C 18.194579 41.095333 18.33421 41.414501 18.615144 41.700749 C 18.901955 41.982556 19.229501 42.122793 19.602942 42.122178 Z M 19.602942 42.122178 " stroke="#231f20" stroke-width="11.269819" stroke-opacity="1" stroke-miterlimit="4"/><path stroke-linecap="butt" transform="matrix(0.746229, -0.0751159, 0.0751159, 0.746229, 92.522643, 160.632469)" fill="none" stroke-linejoin="miter" d="M 12.822785 54.998763 C 10.618671 55.001986 8.653279 54.505773 6.930224 53.526192 C 5.219099 52.532109 3.863729 51.176002 2.868775 49.463576 C 1.885229 47.741828 1.392105 45.776307 1.394064 43.572714 L 1.393385 21.63421 C 1.395866 19.425435 1.885854 17.469885 2.870095 15.752534 C 3.865222 14.031045 5.215625 12.680335 6.93219 11.696267 C 8.654981 10.702357 10.615842 10.203529 12.819434 10.205489 L 36.385757 10.206392 C 36.79932 10.206144 37.136612 10.339555 37.398156 10.601442 C 37.664883 10.86385 37.79837 11.201835 37.793436 11.614876 L 37.794745 23.874569 C 37.793984 24.246152 37.665756 24.583967 37.399696 24.886968 C 37.134679 25.179605 36.795651 25.323457 36.38727 25.324226 L 19.599639 25.325165 C 19.228055 25.324404 18.900956 25.453752 18.617819 25.718392 C 18.335725 25.972668 18.191429 26.314099 18.196337 26.733366 L 18.196424 38.485174 C 18.195141 38.86194 18.334854 39.190082 18.615562 39.469602 C 18.901973 39.744461 19.22838 39.882011 19.599964 39.882772 C 19.97673 39.884055 20.299691 39.743821 20.572985 39.472955 C 20.853026 39.187065 20.995758 38.86118 20.996519 38.489596 L 21.051065 29.575236 C 21.050296 29.166855 21.18941 28.824902 21.47359 28.549898 C 21.758292 28.269712 22.081774 28.124295 22.442994 28.124014 L 36.38803 28.124843 C 36.79641 28.124073 37.144067 28.258527 37.42634 28.5225 C 37.709656 28.776109 37.848847 29.109434 37.849616 29.517815 L 37.796583 53.550009 C 37.796344 53.916411 37.653091 54.247478 37.371484 54.548915 C 37.089878 54.850351 36.760692 55.000428 36.389108 54.999667 Z M 12.822785 54.998763 " stroke="#231f20" stroke-width="11.269819" stroke-opacity="1" stroke-miterlimit="4"/><path stroke-linecap="butt" transform="matrix(0.748727, -0.0436819, 0.0436819, 0.748727, 122.86389, 157.53437)" fill="none" stroke-linejoin="miter" d="M 2.857966 55.000456 C 2.48239 54.999413 2.145897 54.865003 1.843592 54.591724 C 1.547093 54.308349 1.394014 53.98117 1.395057 53.605593 L 1.392931 11.612306 C 1.395794 11.205533 1.535707 10.864144 1.816958 10.604041 C 2.098513 10.338739 2.429679 10.206761 2.800056 10.207501 L 44.85084 10.203513 C 45.257614 10.206376 45.594411 10.335586 45.845024 10.600633 C 46.111236 10.866589 46.24291 11.202954 46.244943 11.615231 L 46.245463 22.247894 C 46.24442 22.623471 46.110617 22.949565 45.84895 23.231679 C 45.593089 23.503697 45.26162 23.640874 44.849344 23.642907 L 19.603457 23.64127 C 19.22788 23.640227 18.901914 23.772508 18.620359 24.03781 C 18.333605 24.302809 18.193995 24.638998 18.196028 25.051275 C 18.195289 25.421652 18.337666 25.753425 18.618566 26.03589 C 18.900073 26.307955 19.225864 26.446958 19.601744 26.442801 L 42.551967 26.446153 C 42.964244 26.44412 43.305936 26.578833 43.577651 26.839893 C 43.860068 27.09636 44.002445 27.428132 43.999279 27.840106 L 44.001714 37.366837 C 44.000671 37.742414 43.872067 38.068811 43.605201 38.350621 C 43.34934 38.622639 43.017871 38.759817 42.605594 38.76185 L 19.603073 38.760665 C 19.227496 38.759622 18.90153 38.891903 18.619975 39.157205 C 18.333221 39.422203 18.193611 39.758393 18.195645 40.170669 C 18.194905 40.541047 18.337282 40.872819 18.618182 41.155284 C 18.899689 41.42735 19.230983 41.561456 19.60136 41.562196 L 44.795252 41.560799 C 45.207225 41.563966 45.549221 41.693479 45.820632 41.959739 C 46.10305 42.216206 46.245426 42.547979 46.242563 42.954752 L 46.241869 53.608214 C 46.24113 53.978591 46.112526 54.304988 45.845356 54.591998 C 45.589496 54.864017 45.258027 55.001194 44.851253 54.998331 Z M 2.857966 55.000456 " stroke="#231f20" stroke-width="11.269819" stroke-opacity="1" stroke-miterlimit="4"/><path stroke-linecap="butt" transform="matrix(0.749975, -0.0060957, 0.0060957, 0.749975, 159.803387, 155.332358)" fill="none" stroke-linejoin="miter" d="M 2.856906 54.998563 C 2.481876 55.000723 2.144446 54.862559 1.844574 54.58928 C 1.544786 54.305584 1.396374 53.98145 1.394214 53.60642 L 1.39175 11.615427 C 1.395094 11.203982 1.533258 10.866553 1.816657 10.603222 C 2.100057 10.339892 2.429272 10.207146 2.804302 10.204986 L 33.529279 10.204706 C 33.951182 10.202927 34.299198 10.320343 34.568202 10.546495 C 34.852873 10.767566 34.995992 11.102074 34.992267 11.560392 L 34.994525 36.915416 C 34.991477 37.290404 35.129473 37.614453 35.40322 37.897937 C 35.687467 38.171089 36.014481 38.309169 36.389469 38.312216 C 36.795748 38.31031 37.135421 38.172441 37.398073 37.898525 C 37.665975 37.619443 37.79368 37.287137 37.796685 36.917358 L 37.794004 11.614415 C 37.797348 11.20297 37.930304 10.865498 38.208495 10.602125 C 38.486687 10.338753 38.815902 10.206007 39.190932 10.203847 L 53.186193 10.203012 C 53.597638 10.206356 53.93511 10.339311 54.19861 10.601878 C 54.46211 10.864445 54.59477 11.204076 54.596634 11.615564 L 54.59389 53.606514 C 54.59605 53.981544 54.46318 54.3086 54.200486 54.587724 C 53.932626 54.861598 53.59816 54.999509 53.186673 55.001373 L 22.446072 55.001526 C 22.034627 54.998181 21.686611 54.880766 21.407275 54.644113 C 21.133232 54.397085 20.995237 54.073036 20.998581 53.661592 L 20.998441 28.686806 C 20.996577 28.275319 20.863874 27.940896 20.600417 27.673121 C 20.342125 27.410596 20.009861 27.277683 19.603582 27.279589 C 19.228594 27.276541 18.89938 27.409286 18.61598 27.672617 C 18.337746 27.941198 18.194374 28.278585 18.196281 28.684864 L 18.191636 53.607526 C 18.193838 53.977348 18.060925 54.309612 17.798231 54.588736 C 17.540788 54.862694 17.211531 55.000648 16.800043 55.002512 Z M 2.856906 54.998563 " stroke="#231f20" stroke-width="11.269819" stroke-opacity="1" stroke-miterlimit="4"/><path stroke-linecap="butt" transform="matrix(0.74946, 0.0284604, -0.0284604, 0.74946, 202.955221, 155.153032)" fill="none" stroke-linejoin="miter" d="M 12.822704 55.000033 C 10.618004 55.000362 8.655152 54.506783 6.929141 53.524698 C 5.218349 52.53161 3.86384 51.175783 2.871017 49.462224 C 1.888405 47.743064 1.396737 45.77593 1.396408 43.571229 L 1.392063 21.633716 C 1.391734 19.429015 1.885313 17.466163 2.873196 15.755569 C 3.865888 14.034367 5.216511 12.680056 6.930465 11.697642 C 8.654434 10.704423 10.616166 10.207749 12.820867 10.207419 L 36.389786 10.203668 C 36.796336 10.203866 37.134964 10.336945 37.400463 10.603104 C 37.665765 10.864057 37.798515 11.203014 37.798515 11.614769 L 37.794955 23.873735 C 37.793572 24.249058 37.665697 24.587487 37.400724 24.884214 C 37.135554 25.175737 36.79719 25.3241 36.39064 25.323903 L 19.602567 25.325547 C 19.227245 25.324163 18.898697 25.456518 18.616925 25.72261 C 18.33456 25.973089 18.196276 26.311914 18.196671 26.734078 L 18.194759 38.487409 C 18.193375 38.862732 18.336139 39.190884 18.617845 39.472063 C 18.899156 39.742833 19.227572 39.881512 19.602894 39.882896 C 19.97802 39.879075 20.301363 39.746918 20.57233 39.470812 C 20.85351 39.189106 20.997393 38.860492 20.993572 38.485367 L 21.051351 29.575715 C 21.051351 29.16396 21.19484 28.824937 21.476217 28.548436 C 21.757396 28.266729 22.080344 28.124163 22.445257 28.125942 L 36.387675 28.128119 C 36.79943 28.128119 37.143064 28.255796 37.429382 28.521163 C 37.7101 28.77632 37.853061 29.109677 37.853061 29.521432 L 37.796136 53.551318 C 37.794357 53.916232 37.655876 54.249852 37.370085 54.54737 C 37.089696 54.849895 36.761742 54.997863 36.386616 55.001684 Z M 12.822704 55.000033 " stroke="#231f20" stroke-width="11.269819" stroke-opacity="1" stroke-miterlimit="4"/><path stroke-linecap="butt" transform="matrix(0.747601, 0.0599386, -0.0599386, 0.747601, 233.433916, 156.26627)" fill="none" stroke-linejoin="miter" d="M 2.857239 54.998799 C 2.480941 54.997618 2.146154 54.862483 1.847269 54.588618 C 1.542777 54.309978 1.395897 53.976901 1.392302 53.606211 L 1.395606 11.612249 C 1.39429 11.204801 1.5342 10.864406 1.81617 10.601447 C 2.09814 10.338488 2.427274 10.207599 2.803156 10.203588 L 44.849035 10.20273 C 45.262091 10.206189 45.59127 10.336548 45.847789 10.60336 C 46.109083 10.864563 46.245996 11.203664 46.242121 11.611528 L 46.243344 22.249625 C 46.241747 22.620731 46.111387 22.94991 45.846657 23.232387 C 45.591478 23.503648 45.257569 23.640145 44.850121 23.641462 L 19.602865 23.643559 C 19.226567 23.642378 18.902625 23.772851 18.615879 24.041418 C 18.333909 24.304377 18.193582 24.63958 18.195315 25.05222 C 18.193718 25.423326 18.334991 25.751628 18.618717 26.031933 C 18.902026 26.307046 19.22643 26.443014 19.602728 26.444194 L 42.551078 26.443535 C 42.964134 26.446994 43.303697 26.576521 43.575791 26.842084 C 43.862627 27.096014 44.004316 27.429507 44.000441 27.837372 L 44.001679 37.367757 C 44.000082 37.738863 43.869722 38.068042 43.604992 38.350519 C 43.349813 38.62178 43.015904 38.758277 42.608456 38.759594 L 19.60258 38.75964 C 19.226282 38.75846 18.902756 38.894124 18.615595 39.157499 C 18.333625 39.420458 18.193714 39.760854 18.195031 40.168302 C 18.19385 40.5446 18.335123 40.872901 18.618848 41.153206 C 18.902158 41.42832 19.226562 41.564287 19.60286 41.565468 L 44.792591 41.562758 C 45.20523 41.561025 45.545209 41.695744 45.822495 41.96089 C 46.104139 42.215237 46.245828 42.54873 46.241953 42.956595 L 46.244008 53.605074 C 46.242827 53.981372 46.112052 54.30536 45.847322 54.587837 C 45.592559 54.86429 45.258649 55.000787 44.851201 55.002103 Z M 2.857239 54.998799 " stroke="#231f20" stroke-width="11.269819" stroke-opacity="1" stroke-miterlimit="4"/><path stroke-linecap="butt" transform="matrix(0.744046, 0.0943152, -0.0943152, 0.744046, 270.212653, 159.242538)" fill="none" stroke-linejoin="miter" d="M 2.801056 55.000583 C 2.428306 55.000583 2.101184 54.863548 1.819693 54.589479 C 1.536892 54.305077 1.396146 53.981667 1.395491 53.603749 L 1.39639 11.614047 C 1.396972 11.204472 1.537864 10.866362 1.819065 10.599717 C 2.10092 10.338238 2.430807 10.207172 2.803558 10.207172 L 37.070143 10.2053 C 38.823425 10.203555 40.385529 10.598794 41.760311 11.380029 C 43.146082 12.16512 44.228747 13.251134 45.012818 14.632249 C 45.796234 16.008196 46.189143 17.575394 46.186376 19.334499 L 46.189283 25.487143 C 46.188264 27.135776 45.647985 28.506264 44.561971 29.588929 C 43.485636 30.665118 42.125408 31.199791 40.476776 31.198771 L 39.983874 31.203501 C 39.611123 31.203501 39.281237 31.334567 38.999381 31.596046 C 38.71818 31.862691 38.577289 32.200801 38.576706 32.610376 C 38.576706 32.983127 38.718106 33.311704 39.000253 33.590939 C 39.281744 33.865008 39.608866 34.002043 39.981616 34.002043 L 40.475173 34.00248 C 42.123806 34.0035 43.489127 34.544433 44.561458 35.631757 C 45.64929 36.717116 46.18913 38.076689 46.187455 39.720155 L 46.186865 53.548759 C 46.191377 53.915688 46.054997 54.247976 45.793882 54.548825 C 45.537934 54.84902 45.2055 55.001409 44.795926 55.000827 L 30.799358 55.000527 C 30.42144 55.001182 30.094319 54.864147 29.812828 54.590079 C 29.530026 54.305676 29.388626 53.977099 29.388626 53.604348 L 29.389726 40.442431 C 29.390308 40.032857 29.258587 39.697803 28.995216 39.442437 C 28.736357 39.181249 28.404724 39.050037 27.995149 39.049454 L 19.600178 39.047848 C 19.227427 39.047848 18.897541 39.178915 18.61634 39.44556 C 18.333829 39.701872 18.192283 40.034815 18.1917 40.444389 L 18.194385 53.553327 C 18.193075 53.915743 18.061862 54.247377 17.79558 54.548881 C 17.544799 54.848421 17.212366 55.00081 16.797624 55.000883 Z M 19.600477 26.169533 L 27.995448 26.171139 C 28.405023 26.171722 28.738767 26.029666 28.991513 25.745628 C 29.255247 25.465446 29.387115 25.13898 29.38646 24.761062 C 29.387043 24.351487 29.255976 24.021601 28.992605 23.766235 C 28.738259 23.499225 28.406626 23.368013 27.997051 23.36743 L 19.602735 23.370991 C 19.229984 23.370991 18.900097 23.502058 18.618242 23.763536 C 18.335731 24.019848 18.194184 24.352791 18.193602 24.762365 C 18.193602 25.135116 18.335002 25.463693 18.617804 25.748096 C 18.89995 26.027332 19.227726 26.169533 19.600477 26.169533 Z M 19.600477 26.169533 " stroke="#231f20" stroke-width="11.269819" stroke-opacity="1" stroke-miterlimit="4"/><path stroke-linecap="butt" transform="matrix(0.738915, 0.128472, -0.128472, 0.738915, 306.772984, 163.903876)" fill="none" stroke-linejoin="miter" d="M 2.801395 54.997643 C 2.426363 54.99941 2.101758 54.865535 1.816425 54.59267 C 1.534439 54.308649 1.392562 53.979123 1.395926 53.603199 L 1.392156 43.517272 C 1.395299 43.109667 1.537652 42.773015 1.81587 42.51847 C 2.098328 42.257902 2.428746 42.121157 2.80467 42.124521 L 27.994279 42.122122 C 28.407015 42.124372 28.736541 41.982495 28.994012 41.699839 C 29.256614 41.41629 29.39049 41.091685 29.390507 40.726916 C 29.386733 40.309941 29.259359 39.972607 28.992988 39.717591 C 28.735989 39.455659 28.406253 39.322676 27.993517 39.320425 L 12.821344 39.32039 C 10.617334 39.322964 8.654742 38.828929 6.929328 37.844306 C 5.218416 36.851876 3.862028 35.496477 2.872211 33.786589 C 1.884848 32.060414 1.396795 30.104693 1.395113 27.905814 L 1.393173 21.631112 C 1.39573 19.42621 1.885526 17.469641 2.871933 15.75449 C 3.862579 14.033316 5.217978 12.676928 6.929651 11.697373 C 8.654041 10.699748 10.619133 10.204779 12.824035 10.207336 L 44.796122 10.204583 C 45.203727 10.207725 45.538594 10.339816 45.790463 10.60264 C 46.058617 10.867919 46.191123 11.204361 46.187981 11.611965 L 46.189967 21.68763 C 46.191734 22.062662 46.057859 22.387267 45.790125 22.671708 C 45.536001 22.943209 45.205583 23.079955 44.793739 23.082836 L 19.603238 23.080104 C 19.228206 23.081871 18.902027 23.212593 18.615331 23.479185 C 18.333765 23.744884 18.196543 24.080644 18.193401 24.488249 C 18.195168 24.863281 18.337045 25.192807 18.618138 25.471695 C 18.89834 25.745453 19.228968 25.883567 19.604 25.8818 L 34.776173 25.881836 C 36.970813 25.886176 38.928274 26.381104 40.639185 27.373535 C 42.359467 28.35905 43.714963 29.709317 44.697195 31.436384 C 45.692143 33.14538 46.18622 35.105341 46.188795 37.309351 L 46.18895 43.57379 C 46.191525 45.7778 45.692358 47.741284 44.69658 49.46335 C 43.715304 51.177609 42.359014 52.528866 40.639755 53.525599 C 38.928082 54.505154 36.973253 54.998338 34.774374 55.000021 Z M 2.801395 54.997643 " stroke="#231f20" stroke-width="11.269819" stroke-opacity="1" stroke-miterlimit="4"/><g fill="#ffffff" fill-opacity="1"><g transform="translate(39.805762, 210.712905)"><g><path d="M 2.0625 -0.359375 C 1.789062 -0.316406 1.53125 -0.378906 1.28125 -0.546875 C 1.039062 -0.710938 0.894531 -0.9375 0.84375 -1.21875 L -4.671875 -32.234375 C -4.722656 -32.535156 -4.660156 -32.800781 -4.484375 -33.03125 C -4.316406 -33.257812 -4.097656 -33.394531 -3.828125 -33.4375 L 13.578125 -36.546875 C 15.210938 -36.835938 16.726562 -36.726562 18.125 -36.21875 C 19.519531 -35.71875 20.691406 -34.898438 21.640625 -33.765625 C 22.597656 -32.628906 23.222656 -31.242188 23.515625 -29.609375 L 26.40625 -13.40625 C 26.695312 -11.78125 26.585938 -10.265625 26.078125 -8.859375 C 25.578125 -7.460938 24.757812 -6.285156 23.625 -5.328125 C 22.488281 -4.378906 21.101562 -3.757812 19.46875 -3.46875 Z M 12.78125 -12.078125 C 13.082031 -12.128906 13.304688 -12.28125 13.453125 -12.53125 C 13.609375 -12.78125 13.664062 -13.035156 13.625 -13.296875 L 11.484375 -25.296875 C 11.429688 -25.609375 11.289062 -25.835938 11.0625 -25.984375 C 10.832031 -26.140625 10.566406 -26.191406 10.265625 -26.140625 C 9.992188 -26.085938 9.769531 -25.945312 9.59375 -25.71875 C 9.425781 -25.5 9.367188 -25.234375 9.421875 -24.921875 L 11.5625 -12.921875 C 11.601562 -12.660156 11.75 -12.441406 12 -12.265625 C 12.25 -12.085938 12.507812 -12.023438 12.78125 -12.078125 Z M 12.78125 -12.078125 "/></g></g></g><g fill="#ffffff" fill-opacity="1"><g transform="translate(68.144428, 205.655208)"><g><path d="M 9.53125 -1.328125 C 7.894531 -1.097656 6.382812 -1.257812 5 -1.8125 C 3.625 -2.375 2.476562 -3.238281 1.5625 -4.40625 C 0.644531 -5.582031 0.0703125 -6.988281 -0.15625 -8.625 L -2.421875 -24.9375 C -2.648438 -26.570312 -2.484375 -28.078125 -1.921875 -29.453125 C -1.359375 -30.835938 -0.488281 -31.984375 0.6875 -32.890625 C 1.863281 -33.796875 3.269531 -34.363281 4.90625 -34.59375 L 14.96875 -35.984375 C 16.601562 -36.210938 18.109375 -36.050781 19.484375 -35.5 C 20.859375 -34.945312 22 -34.082031 22.90625 -32.90625 C 23.820312 -31.738281 24.394531 -30.335938 24.625 -28.703125 L 26.890625 -12.390625 C 27.117188 -10.753906 26.953125 -9.242188 26.390625 -7.859375 C 25.835938 -6.484375 24.972656 -5.335938 23.796875 -4.421875 C 22.628906 -3.515625 21.226562 -2.945312 19.59375 -2.71875 Z M 13.234375 -11.59375 C 13.535156 -11.632812 13.765625 -11.773438 13.921875 -12.015625 C 14.085938 -12.253906 14.15625 -12.503906 14.125 -12.765625 L 12.4375 -24.84375 C 12.394531 -25.15625 12.265625 -25.390625 12.046875 -25.546875 C 11.828125 -25.710938 11.566406 -25.773438 11.265625 -25.734375 C 10.984375 -25.691406 10.753906 -25.5625 10.578125 -25.34375 C 10.398438 -25.125 10.332031 -24.859375 10.375 -24.546875 L 12.0625 -12.46875 C 12.09375 -12.207031 12.222656 -11.984375 12.453125 -11.796875 C 12.691406 -11.617188 12.953125 -11.550781 13.234375 -11.59375 Z M 13.234375 -11.59375 "/></g></g></g><g fill="#ffffff" fill-opacity="1"><g transform="translate(96.654017, 201.675055)"><g><path d="M 9.578125 -0.96875 C 7.929688 -0.800781 6.429688 -1.019531 5.078125 -1.625 C 3.722656 -2.226562 2.609375 -3.132812 1.734375 -4.34375 C 0.867188 -5.5625 0.351562 -6.988281 0.1875 -8.625 L -1.453125 -25.015625 C -1.617188 -26.660156 -1.394531 -28.160156 -0.78125 -29.515625 C -0.175781 -30.867188 0.726562 -31.976562 1.9375 -32.84375 C 3.144531 -33.707031 4.570312 -34.222656 6.21875 -34.390625 L 23.796875 -36.15625 C 24.109375 -36.1875 24.367188 -36.113281 24.578125 -35.9375 C 24.785156 -35.769531 24.90625 -35.535156 24.9375 -35.234375 L 25.859375 -26.078125 C 25.890625 -25.804688 25.816406 -25.546875 25.640625 -25.296875 C 25.472656 -25.054688 25.234375 -24.921875 24.921875 -24.890625 L 12.390625 -23.625 C 12.109375 -23.601562 11.875 -23.484375 11.6875 -23.265625 C 11.507812 -23.046875 11.4375 -22.78125 11.46875 -22.46875 L 12.359375 -13.703125 C 12.378906 -13.421875 12.5 -13.1875 12.71875 -13 C 12.945312 -12.8125 13.203125 -12.726562 13.484375 -12.75 C 13.765625 -12.78125 14 -12.910156 14.1875 -13.140625 C 14.375 -13.367188 14.457031 -13.625 14.4375 -13.90625 L 13.8125 -20.546875 C 13.78125 -20.859375 13.859375 -21.128906 14.046875 -21.359375 C 14.234375 -21.585938 14.46875 -21.71875 14.75 -21.75 L 25.140625 -22.796875 C 25.453125 -22.828125 25.722656 -22.753906 25.953125 -22.578125 C 26.179688 -22.410156 26.3125 -22.171875 26.34375 -21.859375 L 28.09375 -3.9375 C 28.125 -3.65625 28.046875 -3.390625 27.859375 -3.140625 C 27.671875 -2.898438 27.4375 -2.765625 27.15625 -2.734375 Z M 9.578125 -0.96875 "/></g></g></g><g fill="#ffffff" fill-opacity="1"><g transform="translate(125.266394, 198.714344)"><g><path d="M 2.140625 -0.125 C 1.859375 -0.101562 1.597656 -0.191406 1.359375 -0.390625 C 1.128906 -0.585938 1.003906 -0.828125 0.984375 -1.109375 L -0.84375 -32.546875 C -0.863281 -32.859375 -0.769531 -33.113281 -0.5625 -33.3125 C -0.363281 -33.519531 -0.128906 -33.632812 0.140625 -33.65625 L 31.625 -35.484375 C 31.9375 -35.503906 32.191406 -35.421875 32.390625 -35.234375 C 32.597656 -35.054688 32.710938 -34.8125 32.734375 -34.5 L 33.1875 -26.53125 C 33.207031 -26.257812 33.125 -26.007812 32.9375 -25.78125 C 32.757812 -25.5625 32.515625 -25.441406 32.203125 -25.421875 L 13.296875 -24.328125 C 13.015625 -24.304688 12.78125 -24.191406 12.59375 -23.984375 C 12.40625 -23.785156 12.316406 -23.535156 12.328125 -23.234375 C 12.347656 -22.953125 12.460938 -22.710938 12.671875 -22.515625 C 12.890625 -22.316406 13.140625 -22.226562 13.421875 -22.25 L 30.625 -23.25 C 30.914062 -23.269531 31.171875 -23.1875 31.390625 -23 C 31.617188 -22.8125 31.742188 -22.566406 31.765625 -22.265625 L 32.1875 -15.140625 C 32.195312 -14.859375 32.109375 -14.609375 31.921875 -14.390625 C 31.742188 -14.171875 31.507812 -14.050781 31.21875 -14.03125 L 13.96875 -13.03125 C 13.6875 -13.007812 13.445312 -12.894531 13.25 -12.6875 C 13.0625 -12.476562 12.976562 -12.21875 13 -11.90625 C 13.007812 -11.625 13.117188 -11.382812 13.328125 -11.1875 C 13.546875 -10.988281 13.796875 -10.898438 14.078125 -10.921875 L 32.9375 -12.015625 C 33.25 -12.035156 33.515625 -11.953125 33.734375 -11.765625 C 33.960938 -11.578125 34.082031 -11.332031 34.09375 -11.03125 L 34.5625 -3.0625 C 34.582031 -2.78125 34.5 -2.53125 34.3125 -2.3125 C 34.132812 -2.09375 33.890625 -1.972656 33.578125 -1.953125 Z M 2.140625 -0.125 "/></g></g></g><g fill="#ffffff" fill-opacity="1"><g transform="translate(160.13865, 196.580993)"><g><path d="M 2.140625 -0.015625 C 1.859375 -0.015625 1.601562 -0.117188 1.375 -0.328125 C 1.15625 -0.535156 1.039062 -0.78125 1.03125 -1.0625 L 0.78125 -32.5625 C 0.78125 -32.875 0.882812 -33.125 1.09375 -33.3125 C 1.3125 -33.507812 1.554688 -33.609375 1.828125 -33.609375 L 24.890625 -33.796875 C 25.203125 -33.796875 25.460938 -33.710938 25.671875 -33.546875 C 25.878906 -33.390625 25.984375 -33.144531 25.984375 -32.8125 L 26.140625 -13.78125 C 26.140625 -13.5 26.242188 -13.253906 26.453125 -13.046875 C 26.660156 -12.835938 26.90625 -12.734375 27.1875 -12.734375 C 27.5 -12.734375 27.75 -12.835938 27.9375 -13.046875 C 28.132812 -13.265625 28.234375 -13.515625 28.234375 -13.796875 L 28.078125 -32.78125 C 28.078125 -33.09375 28.179688 -33.34375 28.390625 -33.53125 C 28.609375 -33.726562 28.859375 -33.828125 29.140625 -33.828125 L 39.640625 -33.921875 C 39.941406 -33.921875 40.191406 -33.820312 40.390625 -33.625 C 40.585938 -33.4375 40.6875 -33.1875 40.6875 -32.875 L 40.9375 -1.375 C 40.945312 -1.09375 40.851562 -0.847656 40.65625 -0.640625 C 40.457031 -0.429688 40.207031 -0.328125 39.90625 -0.328125 L 16.84375 -0.140625 C 16.53125 -0.140625 16.269531 -0.226562 16.0625 -0.40625 C 15.851562 -0.582031 15.742188 -0.828125 15.734375 -1.140625 L 15.59375 -19.859375 C 15.59375 -20.171875 15.488281 -20.425781 15.28125 -20.625 C 15.082031 -20.820312 14.832031 -20.921875 14.53125 -20.921875 C 14.25 -20.910156 14.003906 -20.804688 13.796875 -20.609375 C 13.597656 -20.410156 13.5 -20.15625 13.5 -19.84375 L 13.640625 -1.15625 C 13.648438 -0.875 13.554688 -0.628906 13.359375 -0.421875 C 13.160156 -0.210938 12.90625 -0.109375 12.59375 -0.109375 Z M 2.140625 -0.015625 "/></g></g></g><g fill="#ffffff" fill-opacity="1"><g transform="translate(201.3899, 196.373318)"><g><path d="M 9.625 0.359375 C 7.96875 0.296875 6.507812 -0.125 5.25 -0.90625 C 3.988281 -1.695312 3.007812 -2.75 2.3125 -4.0625 C 1.625 -5.382812 1.3125 -6.867188 1.375 -8.515625 L 2 -24.96875 C 2.0625 -26.625 2.488281 -28.082031 3.28125 -29.34375 C 4.070312 -30.601562 5.125 -31.578125 6.4375 -32.265625 C 7.757812 -32.953125 9.25 -33.265625 10.90625 -33.203125 L 28.5625 -32.53125 C 28.875 -32.519531 29.117188 -32.410156 29.296875 -32.203125 C 29.484375 -32.003906 29.570312 -31.75 29.5625 -31.4375 L 29.21875 -22.265625 C 29.207031 -21.984375 29.097656 -21.734375 28.890625 -21.515625 C 28.691406 -21.304688 28.4375 -21.207031 28.125 -21.21875 L 15.53125 -21.6875 C 15.25 -21.695312 15 -21.609375 14.78125 -21.421875 C 14.570312 -21.234375 14.457031 -20.984375 14.4375 -20.671875 L 14.109375 -11.859375 C 14.097656 -11.578125 14.191406 -11.328125 14.390625 -11.109375 C 14.597656 -10.890625 14.84375 -10.773438 15.125 -10.765625 C 15.40625 -10.753906 15.648438 -10.847656 15.859375 -11.046875 C 16.078125 -11.253906 16.191406 -11.5 16.203125 -11.78125 L 16.5 -18.453125 C 16.507812 -18.765625 16.625 -19.019531 16.84375 -19.21875 C 17.0625 -19.414062 17.3125 -19.507812 17.59375 -19.5 L 28.046875 -19.109375 C 28.359375 -19.097656 28.613281 -18.988281 28.8125 -18.78125 C 29.019531 -18.582031 29.113281 -18.328125 29.09375 -18.015625 L 28.375 -0.015625 C 28.363281 0.265625 28.25 0.507812 28.03125 0.71875 C 27.8125 0.9375 27.5625 1.039062 27.28125 1.03125 Z M 9.625 0.359375 "/></g></g></g><g fill="#ffffff" fill-opacity="1"><g transform="translate(230.137291, 197.384326)"><g><path d="M 2.140625 0.171875 C 1.859375 0.148438 1.613281 0.0234375 1.40625 -0.203125 C 1.195312 -0.429688 1.101562 -0.6875 1.125 -0.96875 L 3.640625 -32.359375 C 3.671875 -32.671875 3.800781 -32.910156 4.03125 -33.078125 C 4.257812 -33.253906 4.507812 -33.332031 4.78125 -33.3125 L 36.21875 -30.796875 C 36.53125 -30.773438 36.773438 -30.660156 36.953125 -30.453125 C 37.128906 -30.242188 37.203125 -29.984375 37.171875 -29.671875 L 36.546875 -21.71875 C 36.523438 -21.445312 36.40625 -21.210938 36.1875 -21.015625 C 35.976562 -20.816406 35.71875 -20.726562 35.40625 -20.75 L 16.53125 -22.265625 C 16.25 -22.285156 15.992188 -22.207031 15.765625 -22.03125 C 15.546875 -21.851562 15.425781 -21.609375 15.40625 -21.296875 C 15.382812 -21.015625 15.46875 -20.765625 15.65625 -20.546875 C 15.851562 -20.328125 16.09375 -20.207031 16.375 -20.1875 L 33.53125 -18.8125 C 33.832031 -18.78125 34.082031 -18.65625 34.28125 -18.4375 C 34.476562 -18.226562 34.5625 -17.972656 34.53125 -17.671875 L 33.96875 -10.546875 C 33.945312 -10.265625 33.828125 -10.03125 33.609375 -9.84375 C 33.390625 -9.65625 33.128906 -9.578125 32.828125 -9.609375 L 15.625 -10.984375 C 15.34375 -11.003906 15.085938 -10.921875 14.859375 -10.734375 C 14.640625 -10.554688 14.519531 -10.3125 14.5 -10 C 14.476562 -9.71875 14.5625 -9.460938 14.75 -9.234375 C 14.945312 -9.015625 15.1875 -8.894531 15.46875 -8.875 L 34.296875 -7.359375 C 34.609375 -7.335938 34.859375 -7.21875 35.046875 -7 C 35.242188 -6.789062 35.328125 -6.535156 35.296875 -6.234375 L 34.65625 1.71875 C 34.632812 2 34.519531 2.234375 34.3125 2.421875 C 34.101562 2.617188 33.84375 2.707031 33.53125 2.6875 Z M 2.140625 0.171875 "/></g></g></g><g fill="#ffffff" fill-opacity="1"><g transform="translate(265.025315, 200.165071)"><g><path d="M 2.078125 0.265625 C 1.804688 0.234375 1.578125 0.0976562 1.390625 -0.140625 C 1.203125 -0.378906 1.125 -0.632812 1.15625 -0.90625 L 5.125 -32.15625 C 5.164062 -32.46875 5.300781 -32.703125 5.53125 -32.859375 C 5.769531 -33.023438 6.023438 -33.09375 6.296875 -33.0625 L 31.796875 -29.828125 C 33.109375 -29.660156 34.238281 -29.222656 35.1875 -28.515625 C 36.144531 -27.804688 36.847656 -26.898438 37.296875 -25.796875 C 37.753906 -24.691406 37.898438 -23.484375 37.734375 -22.171875 L 37.15625 -17.609375 C 37 -16.378906 36.46875 -15.410156 35.5625 -14.703125 C 34.664062 -14.003906 33.601562 -13.734375 32.375 -13.890625 L 32 -13.9375 C 31.71875 -13.96875 31.457031 -13.898438 31.21875 -13.734375 C 30.988281 -13.566406 30.851562 -13.328125 30.8125 -13.015625 C 30.78125 -12.742188 30.851562 -12.488281 31.03125 -12.25 C 31.21875 -12.019531 31.453125 -11.890625 31.734375 -11.859375 L 32.109375 -11.8125 C 33.335938 -11.65625 34.300781 -11.117188 35 -10.203125 C 35.695312 -9.296875 35.96875 -8.234375 35.8125 -7.015625 L 34.515625 3.28125 C 34.472656 3.550781 34.34375 3.785156 34.125 3.984375 C 33.90625 4.179688 33.640625 4.257812 33.328125 4.21875 L 22.90625 2.90625 C 22.632812 2.875 22.40625 2.738281 22.21875 2.5 C 22.039062 2.257812 21.96875 2.003906 22 1.734375 L 23.25 -8.0625 C 23.289062 -8.363281 23.222656 -8.625 23.046875 -8.84375 C 22.878906 -9.0625 22.640625 -9.191406 22.328125 -9.234375 L 16.09375 -10.03125 C 15.8125 -10.0625 15.554688 -9.988281 15.328125 -9.8125 C 15.097656 -9.644531 14.960938 -9.410156 14.921875 -9.109375 L 13.6875 0.640625 C 13.644531 0.910156 13.507812 1.144531 13.28125 1.34375 C 13.0625 1.539062 12.800781 1.617188 12.5 1.578125 Z M 17.3125 -19.609375 L 23.546875 -18.8125 C 23.859375 -18.769531 24.125 -18.84375 24.34375 -19.03125 C 24.5625 -19.226562 24.691406 -19.460938 24.734375 -19.734375 C 24.765625 -20.035156 24.695312 -20.296875 24.53125 -20.515625 C 24.363281 -20.734375 24.125 -20.863281 23.8125 -20.90625 L 17.578125 -21.703125 C 17.296875 -21.734375 17.035156 -21.660156 16.796875 -21.484375 C 16.566406 -21.316406 16.4375 -21.082031 16.40625 -20.78125 C 16.363281 -20.507812 16.429688 -20.253906 16.609375 -20.015625 C 16.796875 -19.773438 17.03125 -19.640625 17.3125 -19.609375 Z M 17.3125 -19.609375 "/></g></g></g><g fill="#ffffff" fill-opacity="1"><g transform="translate(299.707049, 204.544186)"><g><path d="M 2.0625 0.359375 C 1.789062 0.304688 1.566406 0.160156 1.390625 -0.078125 C 1.222656 -0.316406 1.160156 -0.578125 1.203125 -0.859375 L 2.5 -8.3125 C 2.5625 -8.613281 2.710938 -8.84375 2.953125 -9 C 3.191406 -9.15625 3.445312 -9.207031 3.71875 -9.15625 L 22.34375 -5.921875 C 22.65625 -5.867188 22.921875 -5.925781 23.140625 -6.09375 C 23.367188 -6.269531 23.503906 -6.492188 23.546875 -6.765625 C 23.597656 -7.066406 23.546875 -7.332031 23.390625 -7.5625 C 23.242188 -7.800781 23.015625 -7.945312 22.703125 -8 L 11.5 -9.9375 C 9.863281 -10.226562 8.472656 -10.847656 7.328125 -11.796875 C 6.191406 -12.742188 5.367188 -13.914062 4.859375 -15.3125 C 4.347656 -16.707031 4.234375 -18.222656 4.515625 -19.859375 L 5.3125 -24.484375 C 5.601562 -26.117188 6.222656 -27.503906 7.171875 -28.640625 C 8.128906 -29.773438 9.300781 -30.597656 10.6875 -31.109375 C 12.082031 -31.617188 13.597656 -31.726562 15.234375 -31.4375 L 38.84375 -27.34375 C 39.15625 -27.289062 39.390625 -27.148438 39.546875 -26.921875 C 39.710938 -26.703125 39.769531 -26.4375 39.71875 -26.125 L 38.421875 -18.671875 C 38.367188 -18.398438 38.226562 -18.175781 38 -18 C 37.769531 -17.832031 37.5 -17.773438 37.1875 -17.828125 L 18.578125 -21.0625 C 18.296875 -21.101562 18.035156 -21.046875 17.796875 -20.890625 C 17.566406 -20.742188 17.425781 -20.515625 17.375 -20.203125 C 17.320312 -19.929688 17.378906 -19.671875 17.546875 -19.421875 C 17.710938 -19.179688 17.9375 -19.039062 18.21875 -19 L 29.421875 -17.046875 C 31.054688 -16.765625 32.441406 -16.144531 33.578125 -15.1875 C 34.722656 -14.238281 35.550781 -13.066406 36.0625 -11.671875 C 36.582031 -10.273438 36.695312 -8.757812 36.40625 -7.125 L 35.609375 -2.5 C 35.328125 -0.875 34.707031 0.503906 33.75 1.640625 C 32.789062 2.785156 31.613281 3.613281 30.21875 4.125 C 28.832031 4.632812 27.320312 4.75 25.6875 4.46875 Z M 2.0625 0.359375 "/></g></g></g></svg>